
<svg width="20" height="20" viewBox="0 0 20 20" fill="none" xmlns="http://www.w3.org/2000/svg">
<g id="prefixIcon">
<path id="Vector" d="M20 0H0V20H20V0Z" fill="white" fill-opacity="0.01"/>
<path id="Vector_2" d="M9.99935 18.3334C14.6017 18.3334 18.3327 14.6024 18.3327 10C18.3327 5.39765 14.6017 1.66669 9.99935 1.66669C5.39698 1.66669 1.66602 5.39765 1.66602 10C1.66602 14.6024 5.39698 18.3334 9.99935 18.3334Z" stroke="#606266" stroke-width="1.3" stroke-linecap="round" stroke-linejoin="round"/>
<path id="Vector_3" d="M15.834 15.8333L14.584 14.5833" stroke="#606266" stroke-width="1.3" stroke-linecap="round" stroke-linejoin="round"/>
<path id="Vector_4" d="M4.16602 4.16669L5.41602 5.41669" stroke="#606266" stroke-width="1.3" stroke-linecap="round" stroke-linejoin="round"/>
<path id="Vector_5" d="M5.83398 12.9166L6.19111 11.6666M9.16732 12.9166L8.81019 11.6666M8.81019 11.6666L7.50065 7.08331L6.19111 11.6666M8.81019 11.6666H6.19111" stroke="#606266" stroke-width="1.3" stroke-linecap="round" stroke-linejoin="round"/>
<path id="Vector_6" d="M14.5833 9.99998C14.5833 12.0833 13.091 12.9166 11.25 12.9166V7.08331C13.091 7.08331 14.5833 7.91665 14.5833 9.99998Z" stroke="#606266" stroke-width="1.3" stroke-linecap="round" stroke-linejoin="round"/>
</g>
</svg>
