
<svg width="20" height="20" viewBox="0 0 20 20" fill="none" xmlns="http://www.w3.org/2000/svg">
<g id="prefixIcon">
<g id="Union">
<path d="M16.5436 15.9375V18.125H17.7936V15.9375H19.9811V14.6875H17.7936V12.5H16.5436V14.6875H14.3561V15.9375H16.5436Z" fill="#606266"/>
<path d="M9.32713 1.68307C8.7779 1.40603 8.15719 1.25 7.50004 1.25C5.25638 1.25 3.43753 3.06884 3.43753 5.3125C3.43753 7.53683 5.22518 9.34364 7.44216 9.3746V8.12442C5.91558 8.0936 4.68753 6.84646 4.68753 5.3125C4.68753 3.7592 5.94673 2.5 7.50004 2.5C7.86713 2.5 8.21779 2.57033 8.5393 2.69825L9.32713 1.68307Z" fill="#606266"/>
<path d="M7.44216 10.2762C5.02403 10.2847 2.73647 10.8302 0.676162 11.7949C0.255671 11.9918 0 12.4215 0 12.8858V15.625C0 15.9701 0.279821 16.25 0.624999 16.25H3.57136V15H1.25V12.9065C3.13839 12.0297 5.23026 11.5347 7.44216 11.5262V10.2762Z" fill="#606266"/>
<path d="M16.5624 6.32942C16.5624 8.57308 14.7436 10.3919 12.4999 10.3919C10.2562 10.3919 8.4374 8.57308 8.4374 6.32942C8.4374 4.08577 10.2562 2.26692 12.4999 2.26692C14.7436 2.26692 16.5624 4.08577 16.5624 6.32942ZM15.3124 6.32942C15.3124 4.77612 14.0532 3.51692 12.4999 3.51692C10.9466 3.51692 9.6874 4.77612 9.6874 6.32942C9.6874 7.88272 10.9466 9.14192 12.4999 9.14192C14.0532 9.14192 15.3124 7.88272 15.3124 6.32942Z" fill="#606266"/>
<path d="M15 13.2485C14.1875 13.1099 13.3526 13.0376 12.5 13.0376C10.2667 13.0376 8.1548 13.5336 6.24995 14.418V16.875H15V18.125H5.62495C5.27977 18.125 4.99995 17.8452 4.99995 17.5V14.3973C4.99995 13.933 5.25562 13.5033 5.67611 13.3064C7.75284 12.334 10.0605 11.7876 12.5 11.7876C13.3507 11.7876 14.1855 11.854 15 11.9818V13.2485Z" fill="#606266"/>
</g>
</g>
</svg>
