<svg width="20" height="20" viewBox="0 0 20 20" fill="none" xmlns="http://www.w3.org/2000/svg">
<g id="prefixIcon" opacity="0.9">
<g id="Union">
<path d="M17.3431 6.13327L11.7194 11.7569L10.8356 10.873L16.4592 5.24939L17.3431 6.13327Z" fill="#606266"/>
<path d="M10.0275 13.815C9.33718 13.815 8.77753 13.2554 8.77753 12.565C8.77753 11.8746 9.33718 11.315 10.0275 11.315C10.7179 11.315 11.2775 11.8746 11.2775 12.565C11.2775 13.2554 10.7179 13.815 10.0275 13.815ZM10.0275 15.065C11.4082 15.065 12.5275 13.9457 12.5275 12.565C12.5275 11.1843 11.4082 10.065 10.0275 10.065C8.64682 10.065 7.52753 11.1843 7.52753 12.565C7.52753 13.9457 8.64682 15.065 10.0275 15.065Z" fill="#606266"/>
<path d="M10 4.375C5.51269 4.375 1.875 8.01269 1.875 12.5C1.875 14.2271 2.41317 15.8266 3.33098 17.1424L2.30575 17.8576C1.24636 16.3388 0.625 14.491 0.625 12.5C0.625 7.32233 4.82233 3.125 10 3.125C11.5684 3.125 13.0485 3.51062 14.349 4.19276L13.7684 5.29972C12.6427 4.70929 11.3613 4.375 10 4.375ZM18.125 12.5C18.125 11.1461 17.7943 9.8712 17.2099 8.74999L18.3183 8.17219C18.9936 9.46757 19.375 10.9402 19.375 12.5C19.375 14.491 18.7536 16.3388 17.6943 17.8576L16.669 17.1424C17.5868 15.8266 18.125 14.2271 18.125 12.5Z" fill="#606266"/>
</g>
</g>
</svg>
